<svg xmlns="http://www.w3.org/2000/svg" version="1.1" xmlns:xlink="http://www.w3.org/1999/xlink" xmlns:svgjs="http://svgjs.dev/svgjs" width="1000" height="1000"><style>
    #light-icon {
      display: inline;
    }
    #dark-icon {
      display: none;
    }

    @media (prefers-color-scheme: dark) {
      #light-icon {
        display: none;
      }
      #dark-icon {
        display: inline;
      }
    }
  </style><g id="light-icon"><svg xmlns="http://www.w3.org/2000/svg" version="1.1" xmlns:xlink="http://www.w3.org/1999/xlink" xmlns:svgjs="http://svgjs.dev/svgjs" width="1000" height="1000"><g><g transform="matrix(41.666666666666664,0,0,41.666666666666664,0,0)"><svg xmlns="http://www.w3.org/2000/svg" version="1.1" xmlns:xlink="http://www.w3.org/1999/xlink" xmlns:svgjs="http://svgjs.dev/svgjs" width="24" height="24"><svg width="24" height="24" viewBox="0 0 24 24" fill="none" xmlns="http://www.w3.org/2000/svg">
<path d="M3.97247 4.464H11.0165V10.44H9.43247V5.736H3.97247V4.464Z" fill="black"></path>
<path d="M16.5005 4.272C18.4565 4.272 20.0405 5.604 20.0405 7.416C20.0405 9.24 18.4565 10.572 16.5005 10.572C14.5565 10.572 12.9605 9.24 12.9605 7.416C12.9605 5.604 14.5565 4.272 16.5005 4.272ZM16.5005 5.628C15.3725 5.628 14.4845 6.324 14.4845 7.416C14.4845 8.52 15.3725 9.228 16.5005 9.228C17.6285 9.228 18.5165 8.52 18.5165 7.416C18.5165 6.324 17.6285 5.628 16.5005 5.628Z" fill="black"></path>
<path d="M6.72047 13.272H8.06447V14.916C8.06447 17.28 6.79247 19.032 4.22447 19.644L3.46847 18.372C5.73647 17.904 6.72047 16.524 6.72047 14.916V13.272ZM6.96047 13.272H8.30447V14.916C8.30447 16.524 9.28847 17.904 11.5565 18.372L10.8005 19.644C8.23247 19.032 6.96047 17.28 6.96047 14.916V13.272Z" fill="black"></path>
<path d="M12.8525 13.836H20.1965V15.132H12.8525V13.836ZM16.5365 15.708C18.2165 15.708 19.4525 16.608 19.4525 17.88C19.4525 19.152 18.2165 20.052 16.5365 20.052C14.8685 20.052 13.6325 19.152 13.6325 17.88C13.6325 16.608 14.8685 15.708 16.5365 15.708ZM16.5365 17.04C15.8045 17.04 15.2645 17.328 15.2645 17.88C15.2645 18.432 15.8045 18.72 16.5365 18.72C17.2685 18.72 17.8205 18.432 17.8205 17.88C17.8205 17.328 17.2685 17.04 16.5365 17.04ZM15.7445 12.468H17.3405V14.976H15.7445V12.468Z" fill="black"></path>
</svg></svg></g></g></svg></g><g id="dark-icon"><svg xmlns="http://www.w3.org/2000/svg" version="1.1" xmlns:xlink="http://www.w3.org/1999/xlink" xmlns:svgjs="http://svgjs.dev/svgjs" width="1000" height="1000"><g clip-path="url(#SvgjsClipPath1005)"><rect width="1000" height="1000" fill="#ffffff"></rect><g transform="matrix(29.166666666666668,0,0,29.166666666666668,150,150)"><svg xmlns="http://www.w3.org/2000/svg" version="1.1" xmlns:xlink="http://www.w3.org/1999/xlink" xmlns:svgjs="http://svgjs.dev/svgjs" width="24" height="24"><svg width="24" height="24" viewBox="0 0 24 24" fill="none" xmlns="http://www.w3.org/2000/svg">
<path d="M3.97247 4.464H11.0165V10.44H9.43247V5.736H3.97247V4.464Z" fill="black"></path>
<path d="M16.5005 4.272C18.4565 4.272 20.0405 5.604 20.0405 7.416C20.0405 9.24 18.4565 10.572 16.5005 10.572C14.5565 10.572 12.9605 9.24 12.9605 7.416C12.9605 5.604 14.5565 4.272 16.5005 4.272ZM16.5005 5.628C15.3725 5.628 14.4845 6.324 14.4845 7.416C14.4845 8.52 15.3725 9.228 16.5005 9.228C17.6285 9.228 18.5165 8.52 18.5165 7.416C18.5165 6.324 17.6285 5.628 16.5005 5.628Z" fill="black"></path>
<path d="M6.72047 13.272H8.06447V14.916C8.06447 17.28 6.79247 19.032 4.22447 19.644L3.46847 18.372C5.73647 17.904 6.72047 16.524 6.72047 14.916V13.272ZM6.96047 13.272H8.30447V14.916C8.30447 16.524 9.28847 17.904 11.5565 18.372L10.8005 19.644C8.23247 19.032 6.96047 17.28 6.96047 14.916V13.272Z" fill="black"></path>
<path d="M12.8525 13.836H20.1965V15.132H12.8525V13.836ZM16.5365 15.708C18.2165 15.708 19.4525 16.608 19.4525 17.88C19.4525 19.152 18.2165 20.052 16.5365 20.052C14.8685 20.052 13.6325 19.152 13.6325 17.88C13.6325 16.608 14.8685 15.708 16.5365 15.708ZM16.5365 17.04C15.8045 17.04 15.2645 17.328 15.2645 17.88C15.2645 18.432 15.8045 18.72 16.5365 18.72C17.2685 18.72 17.8205 18.432 17.8205 17.88C17.8205 17.328 17.2685 17.04 16.5365 17.04ZM15.7445 12.468H17.3405V14.976H15.7445V12.468Z" fill="black"></path>
</svg></svg></g></g><defs><clipPath id="SvgjsClipPath1005"><rect width="1000" height="1000" x="0" y="0" rx="350" ry="350"></rect></clipPath></defs></svg></g></svg>